<?xml version="1.0" encoding="UTF-8"?>
<svg version="1.1" xmlns="http://www.w3.org/2000/svg" width="512" height="512">
<path d="M0 0 C1.00151332 -0.00170885 2.00302665 -0.0034177 3.03488886 -0.00517833 C6.38829191 -0.00847064 9.74149455 0.00252635 13.09487915 0.01345825 C15.49967443 0.01402242 17.90447006 0.0137057 20.30926514 0.01257324 C25.48535471 0.01211791 30.66139904 0.01778805 35.83747482 0.02904892 C43.32115963 0.04531951 50.80482007 0.05051352 58.28852065 0.0530249 C70.43101857 0.05739956 82.57348958 0.07070244 94.7159729 0.08963013 C106.50959132 0.10799486 118.30320243 0.12214846 130.09683228 0.13064575 C130.82408286 0.1311712 131.55133344 0.13169665 132.30062191 0.13223802 C135.94911145 0.13484814 139.59760103 0.13737554 143.24609065 0.13986182 C173.50250946 0.16058718 203.75889565 0.19595539 234.01528931 0.24050903 C234.02337616 1.54041275 234.03146301 2.84031647 234.03979492 4.17961121 C234.11731376 16.43606686 234.20506775 28.69241229 234.30281639 40.94872379 C234.35274044 47.24965785 234.39907102 53.55057545 234.43716431 59.85159302 C234.47406597 65.93356718 234.52043957 72.01540242 234.57335281 78.09725761 C234.59187074 80.41642251 234.60698828 82.73561715 234.61863327 85.05482674 C234.63553997 88.30574869 234.66458635 91.55635429 234.69644165 94.80715942 C234.69860184 95.76382004 234.70076202 96.72048065 234.70298767 97.70613098 C234.78444224 104.22271658 235.06918194 109.73837099 239.20278931 115.05300903 C245.28389399 119.78275712 252.05429891 119.54265991 259.44863892 119.55935669 C260.98635956 119.57442513 260.98635956 119.57442513 262.55514526 119.58979797 C265.9259691 119.62055979 269.29671376 119.6376458 272.66763306 119.65457153 C275.01176125 119.67328879 277.35588275 119.69286262 279.69999695 119.71325684 C285.85660855 119.76452496 292.01324198 119.80417928 298.16995239 119.84140015 C304.45764544 119.88147306 310.74524808 119.93255043 317.03286743 119.98269653 C329.36027784 120.07939291 341.68773935 120.1638179 354.01528931 120.24050903 C354.10683915 166.45874077 354.17732516 212.67696292 354.21955062 258.89526745 C354.22455347 264.35141258 354.22973076 269.80755753 354.23501587 275.26370239 C354.23606511 276.34992538 354.23711435 277.43614836 354.23819539 278.55528719 C354.25560194 296.14465335 354.28714104 313.73396724 354.32390049 331.32330238 C354.3613029 349.37077063 354.38352369 367.41821149 354.39164329 385.4657169 C354.3971325 396.60254278 354.41447153 407.7392209 354.44695517 418.87600131 C354.46809439 426.51228418 354.47449068 434.14849063 354.46929482 441.78480064 C354.46673213 446.19097175 354.47066838 450.59688458 354.49211121 455.0030098 C354.51161102 459.03939022 354.51253724 463.07533927 354.49888489 467.11173976 C354.49719816 468.56950325 354.50224346 470.02729392 354.51482204 471.48500412 C354.61165673 483.40305963 352.38863905 492.45652594 344.01528931 501.24050903 C334.08529771 509.57841933 326.11542664 510.53849388 313.47821045 510.50120544 C312.09264828 510.50422809 310.70708778 510.50811815 309.32153022 510.51279801 C305.52376351 510.52307216 301.72609127 510.52089769 297.92831683 510.51661742 C293.82869625 510.51414913 289.72909835 510.52316564 285.62948608 510.53065491 C277.6015821 510.54340112 269.57371156 510.54519569 261.54579915 510.54285464 C255.02000932 510.54107122 248.49422963 510.54282164 241.96844101 510.54707909 C241.03946657 510.54767428 240.11049213 510.54826946 239.15336695 510.54888269 C237.26611726 510.55009445 235.37886758 510.55130858 233.4916179 510.55252507 C215.79476268 510.56340032 198.09792652 510.56123819 180.40107022 510.55514022 C164.21538906 510.54997119 148.02976808 510.56122618 131.84409882 510.58023844 C115.22021563 510.59961558 98.59636091 510.60787305 81.97246635 510.60411519 C72.64120177 510.60220294 63.30998842 510.60469299 53.97873306 510.61882973 C46.03484799 510.63074291 38.09104568 510.63214911 30.14715947 510.62003956 C26.09540891 510.61415042 22.04380973 510.61305238 17.99206924 510.62504196 C14.2798323 510.63589911 10.56787316 510.63279956 6.85564922 510.61878028 C4.88327822 510.61488287 2.9108949 510.62568184 0.93855298 510.63707715 C-10.47245883 510.56762418 -18.70035174 508.3286992 -26.98471069 500.24050903 C-33.58631076 492.29344001 -36.78249383 485.00864588 -36.58551025 474.56518555 C-35.49040588 468.50514814 -31.64366076 465.08145154 -27.33236694 460.93191528 C-25.99932777 459.58733498 -25.99932777 459.58733498 -24.63935852 458.21559143 C-22.7605945 456.33674519 -20.87464227 454.47607677 -18.96200562 452.63284302 C-16.51895541 450.2754529 -14.13380028 447.86784597 -11.76110172 445.43989658 C-9.47880701 443.11788203 -7.15422415 440.83926682 -4.83236694 438.55691528 C-3.98199356 437.69054947 -3.13162018 436.82418365 -2.25547791 435.93156433 C3.67656945 430.29699159 3.67656945 430.29699159 7.49516296 430.13587952 C9.82017398 430.63139939 11.83012757 431.31457265 14.01528931 432.24050903 C15.27470337 432.63109497 16.53411743 433.02168091 17.83169556 433.42410278 C19.06790649 433.83789185 20.30411743 434.25168091 21.57778931 434.67800903 C60.12530862 447.15210202 102.69659672 442.4667443 138.6769104 424.46560669 C152.98620348 416.96883986 165.21953864 407.21873243 177.01528931 396.24050903 C178.03235962 395.30464966 178.03235962 395.30464966 179.06997681 394.34988403 C189.12216823 384.74176532 197.79321945 372.68464875 204.01528931 360.24050903 C204.93935074 360.23242218 205.86341217 360.22433533 206.81547546 360.21600342 C215.54008672 360.13793968 224.26454613 360.05061353 232.98896122 359.95298195 C237.47386161 359.90311721 241.95873957 359.85678654 246.4437561 359.81863403 C250.77512261 359.78165685 255.10629681 359.73526366 259.43749809 359.68244553 C261.08679251 359.66396747 262.73612805 359.6488354 264.3854847 359.63716507 C266.70247046 359.62018922 269.01902213 359.59112825 271.33584595 359.55935669 C272.65266861 359.54603302 273.96949127 359.53270935 275.32621765 359.51898193 C280.75481966 359.10919902 284.74221812 358.34752746 288.89028931 354.74050903 C292.35001276 350.67024615 292.29762671 347.92158246 292.23013306 342.71707153 C291.94844422 339.46996744 291.16671913 337.6886878 289.01528931 335.24050903 C283.89719719 331.46928326 278.96824314 331.1237487 272.7562561 331.03518677 C271.51534714 331.01524155 270.27443817 330.99529633 268.9959259 330.9747467 C267.6521212 330.95776646 266.30831522 330.94088751 264.96450806 330.92410278 C263.58159287 330.90351377 262.19868371 330.88251681 260.81578064 330.86112976 C257.18761082 330.80611004 253.5593861 330.75661273 249.93112183 330.70828247 C246.22410231 330.65792005 242.51716185 330.60231116 238.81021118 330.54714966 C231.54530431 330.43981419 224.28033139 330.3383153 217.01528931 330.24050903 C217.16151733 329.54489868 217.30774536 328.84928833 217.45840454 328.13259888 C218.12447616 324.96050213 218.78864966 321.78801081 219.45278931 318.61550903 C219.68288696 317.52109497 219.91298462 316.42668091 220.15005493 315.29910278 C220.48359985 313.70388794 220.48359985 313.70388794 220.82388306 312.07644653 C221.13023682 310.61537476 221.13023682 310.61537476 221.44277954 309.12478638 C222.02894326 306.17172108 222.53537199 303.21252709 223.01528931 300.24050903 C223.70131729 300.23242218 224.38734528 300.22433533 225.09416199 300.21600342 C232.24847633 300.12980017 239.40251863 300.03028955 246.55654907 299.92312622 C249.22483267 299.88383314 251.89302511 299.85003283 254.56143188 299.81863403 C258.40170312 299.77285691 262.24162841 299.71488204 266.08169556 299.65457153 C267.2704982 299.64302032 268.45930084 299.63146912 269.68412781 299.61956787 C280.06566319 299.58993089 280.06566319 299.58993089 288.89028931 294.74050903 C292.35001276 290.67024615 292.29762671 287.92158246 292.23013306 282.71707153 C291.94844422 279.46996744 291.16671913 277.6886878 289.01528931 275.24050903 C284.0734657 271.59916532 279.31150683 271.13006552 273.30703735 271.03518677 C272.1862529 271.01524155 271.06546844 270.99529633 269.91072083 270.9747467 C268.71159561 270.95803421 267.5124704 270.94132172 266.27700806 270.92410278 C265.04110428 270.90332169 263.8052005 270.88254059 262.53184509 270.86112976 C259.25876805 270.80690973 255.9856619 270.75663325 252.7124939 270.70828247 C249.36740671 270.65789333 246.02241206 270.60222087 242.67739868 270.54714966 C236.1234316 270.44014961 229.56939917 270.33835012 223.01528931 270.24050903 C222.79594727 269.09050415 222.79594727 269.09050415 222.57217407 267.91726685 C221.90854807 264.44145655 221.24318809 260.96598037 220.57778931 257.49050903 C220.34769165 256.28394653 220.11759399 255.07738403 219.88052368 253.83425903 C219.6581604 252.67410278 219.43579712 251.51394653 219.20669556 250.31863403 C219.00245972 249.25032349 218.79822388 248.18201294 218.58779907 247.08132935 C218.12377567 244.77882344 217.61178177 242.51149237 217.01528931 240.24050903 C217.77648575 240.23242218 218.53768219 240.22433533 219.32194519 240.21600342 C226.51610654 240.13787271 233.71007045 240.05052723 240.90399265 239.95298195 C244.60194248 239.90316095 248.2998657 239.85683046 251.99795532 239.81863403 C255.57073472 239.78160084 259.14328347 239.73519366 262.71586418 239.68244553 C264.07487861 239.66399689 265.43394231 239.64885423 266.79303169 239.63716507 C278.68664917 239.91662947 278.68664917 239.91662947 288.89028931 234.74050903 C292.35001276 230.67024615 292.29762671 227.92158246 292.23013306 222.71707153 C291.94844422 219.46996744 291.16671913 217.6886878 289.01528931 215.24050903 C283.516373 211.18867597 278.33737291 211.11978237 271.67398071 211.22561646 C270.18046633 211.24503808 268.68694583 211.26399345 267.19342041 211.282547 C266.40718922 211.29370733 265.62095802 211.30486767 264.81090164 211.3163662 C259.75117891 211.37766872 254.69099667 211.37763447 249.63096046 211.38897228 C245.19042391 211.40242029 240.75202461 211.43739628 236.31216431 211.51809692 C232.00668261 211.59514648 227.70446513 211.61341811 223.39838791 211.59227943 C221.76284206 211.5947293 220.12718044 211.61833465 218.49226761 211.66390038 C213.42253354 211.79821917 208.88375566 211.76055825 204.01528931 210.24050903 C200.57062193 206.62599831 198.86651105 202.82593776 197.01528931 198.24050903 C195.57339314 195.98904001 193.97611989 193.97844985 192.32778931 191.86550903 C189.39164681 188.07929331 186.65745709 184.237431 184.01528931 180.24050903 C185.18991226 180.23242218 186.36453522 180.22433533 187.57475281 180.21600342 C198.65392533 180.13845995 209.73297629 180.05069985 220.81198978 179.95298195 C226.5075799 179.90307348 232.20315197 179.85674284 237.89883423 179.81863403 C243.39727024 179.78171258 248.89555316 179.73533377 254.39385796 179.68244553 C256.48973335 179.66393807 258.58564152 179.64881669 260.68156624 179.63716507 C263.62117251 179.62024028 266.56043096 179.59118994 269.49990845 179.55935669 C270.79463829 179.55611641 270.79463829 179.55611641 272.11552429 179.55281067 C278.52648085 179.46434158 283.87277363 179.10356614 288.89028931 174.74050903 C292.35001276 170.67024615 292.29762671 167.92158246 292.23013306 162.71707153 C291.94844422 159.46996744 291.16671913 157.6886878 289.01528931 155.24050903 C284.10957474 151.62577198 279.43826855 151.11153366 273.4724884 151.13612366 C271.81823853 151.13878235 271.81823853 151.13878235 270.13056946 151.14149475 C268.32976677 151.1517141 268.32976677 151.1517141 266.49258423 151.16213989 C264.53942074 151.16666987 262.58625717 151.17118607 260.63309252 151.17518818 C258.53693023 151.18004969 256.44078131 151.18701401 254.34462547 151.19410515 C249.95856121 151.20733518 245.57258427 151.20553622 241.18650818 151.19987488 C240.07318525 151.19849476 240.07318525 151.19849476 238.93737096 151.19708675 C236.65149458 151.19411551 234.36561853 151.19095077 232.07974243 151.18777466 C222.64346336 151.17501796 213.20759827 151.17281254 203.77139282 151.21633911 C196.88030305 151.24801891 189.98984498 151.25096866 183.09873658 151.22157961 C179.46043468 151.20714185 175.82339582 151.20650008 172.18520164 151.24098015 C156.20638683 151.38336733 143.65474645 151.05692981 130.01528931 142.24050903 C96.18823512 125.71953361 53.81332249 124.72854337 18.3722229 136.41140747 C0.83904557 142.57907582 -14.89262158 150.940074 -29.49642944 162.39285278 C-31.63055714 163.97753473 -33.60437157 165.09901748 -35.98471069 166.24050903 C-36.07827338 148.1422545 -36.14874825 130.04406299 -36.19195938 111.94561863 C-36.21255897 103.54163578 -36.24062956 95.13780345 -36.28646851 86.73391724 C-36.32641625 79.4065835 -36.35216242 72.07935882 -36.36106467 64.75191921 C-36.36626605 60.87431167 -36.37843628 56.99701603 -36.40763092 53.11950874 C-36.43492587 49.46445057 -36.4431276 45.80983067 -36.43714142 42.15468025 C-36.43875422 40.18468743 -36.46020301 38.21474157 -36.48239136 36.24487305 C-36.43271192 25.4902311 -33.49386361 17.10115421 -25.98471069 9.24050903 C-17.58834611 2.2936797 -10.76851547 -0.0673173 0 0 Z M27.01528931 96.24050903 C24.29452885 100.70828409 24.36434416 105.15349324 25.01528931 110.24050903 C27.20872741 114.70862369 29.50234067 117.14914259 34.01528931 119.24050903 C37.80997687 120.18660501 41.36022513 120.36823327 45.26403809 120.3742218 C46.5229184 120.37848679 47.78179871 120.38275177 49.0788269 120.387146 C50.46633914 120.38679652 51.85385136 120.386335 53.24136353 120.38577271 C54.708558 120.38876622 56.17575168 120.3921692 57.64294434 120.39595032 C61.62233441 120.4047747 65.60170298 120.40712777 69.58110189 120.4077661 C72.06887249 120.40847747 74.55663765 120.41061342 77.04440689 120.41326332 C85.72790117 120.42251141 94.41138011 120.42659886 103.09487915 120.42581177 C111.18201813 120.42521104 119.2690904 120.43576321 127.3562125 120.45155543 C134.3058376 120.46464154 141.25544092 120.46999522 148.20507824 120.46935636 C152.3529483 120.4691017 156.50075904 120.47193541 160.64861679 120.48253441 C164.55071039 120.49223347 168.45268818 120.4922822 172.35478592 120.48501778 C173.78380249 120.4839742 175.21282633 120.48632134 176.64183044 120.49237823 C188.56987915 120.93403683 188.56987915 120.93403683 198.82778931 115.80300903 C202.76607794 111.18958521 203.46074811 108.65032491 203.33169556 102.74832153 C202.86486914 99.0482899 201.4896535 96.98237206 199.01528931 94.24050903 C193.91031022 90.44449894 188.98198771 90.1163309 182.76654053 90.10679626 C181.50766022 90.10253128 180.24877991 90.0982663 178.95175171 90.09387207 C177.56423947 90.09422155 176.17672726 90.09468307 174.78921509 90.09524536 C173.32202062 90.09225184 171.85482693 90.08884887 170.38763428 90.08506775 C166.4082442 90.07624336 162.42887563 90.0738903 158.44947672 90.07325196 C155.96170612 90.0725406 153.47394097 90.07040465 150.98617172 90.06775475 C142.30267744 90.05850665 133.6191985 90.05441921 124.93569946 90.0552063 C116.84856048 90.05580702 108.76148822 90.04525485 100.67436612 90.02946264 C93.72474102 90.01637652 86.77513769 90.01102285 79.82550037 90.01166171 C75.67763032 90.01191637 71.52981957 90.00908266 67.38196182 89.99848366 C63.47986823 89.98878459 59.57789043 89.98873586 55.67579269 89.99600029 C54.24677613 89.99704387 52.81775228 89.99469673 51.38874817 89.98863983 C38.09003382 89.68273303 38.09003382 89.68273303 27.01528931 96.24050903 Z M187.51528931 395.80300903 C184.54626646 400.62767117 184.39462633 404.62868128 185.01528931 410.24050903 C187.20872741 414.70862369 189.50234067 417.14914259 194.01528931 419.24050903 C198.26854584 420.34685279 202.44968897 420.3885242 206.81558228 420.38577271 C207.585354 420.38913132 208.35512573 420.39248993 209.14822388 420.39595032 C211.68465808 420.4054237 214.22102602 420.40740159 216.75747681 420.40847778 C218.52718126 420.41169281 220.29688545 420.41505707 222.06658936 420.41856384 C225.7736167 420.42454602 229.48062076 420.42640467 233.18765259 420.42581177 C237.92760227 420.42571018 242.66740204 420.43936271 247.40731621 420.45658398 C251.06197795 420.4677259 254.71660369 420.4697303 258.37128067 420.46920204 C260.11830283 420.47037884 261.86532602 420.47478369 263.61233139 420.48253441 C266.06039557 420.49237888 268.50813743 420.48943882 270.95620728 420.48342896 C271.6712442 420.48904846 272.38628113 420.49466797 273.12298584 420.50045776 C279.16266361 420.46295626 284.18602436 419.82587199 288.82778931 415.80300903 C292.76607794 411.18958521 293.46074811 408.65032491 293.33169556 402.74832153 C292.86486914 399.0482899 291.4896535 396.98237206 289.01528931 394.24050903 C283.50368574 390.14213715 277.90655153 390.08977472 271.24673462 390.07937622 C270.0968959 390.07192886 270.0968959 390.07192886 268.92382812 390.06433105 C266.39701425 390.04977047 263.87026318 390.04291723 261.34341431 390.03738403 C259.57850138 390.03162705 257.81358846 390.02586939 256.04867554 390.02011108 C252.35004385 390.00961809 248.65143378 390.00376447 244.95278931 390.00027466 C240.23090795 389.99479707 235.50931596 389.9707776 230.78752518 389.9423027 C227.14135931 389.92360841 223.49526216 389.91846709 219.84905243 389.91693878 C218.10925466 389.91392646 216.36945769 389.90594631 214.62970734 389.8927536 C199.92202965 389.20901289 199.92202965 389.20901289 187.51528931 395.80300903 Z " fill="#000000" transform="translate(157.98471069335938,0.759490966796875)"/>
<path d="M0 0 C0.56251465 0.47147461 1.1250293 0.94294922 1.70458984 1.42871094 C3.21085937 2.66234375 3.21085937 2.66234375 4.74755859 3.92089844 C29.10031197 24.87319683 43.89470658 56.68005142 46.70458984 88.42871094 C48.79164937 121.66437767 39.76022359 153.57966783 19.02880859 179.86230469 C16.75674766 182.37111819 14.40997948 184.40325994 11.70458984 186.42871094 C11.42486328 185.42453125 11.14513672 184.42035156 10.85693359 183.38574219 C4.48509594 161.30828852 -7.23885174 144.77868804 -27.54541016 133.36621094 C-28.79033123 132.7106408 -30.03823889 132.06047125 -31.29541016 131.42871094 C-30.02563696 127.99250007 -28.52388555 125.14805565 -26.48291016 122.11621094 C-17.82673668 107.63253985 -15.78183191 90.81629626 -18.99462891 74.29980469 C-22.22289342 61.89073728 -28.31029971 52.4447512 -37.29541016 43.42871094 C-37.91029297 42.790625 -38.52517578 42.15253906 -39.15869141 41.49511719 C-50.42169896 30.66622984 -66.90924781 25.44731573 -82.29541016 25.42871094 C-101.12486404 26.54108469 -116.68987173 33.72763361 -129.71728516 47.35058594 C-142.38004902 61.89488975 -145.59153968 79.17130966 -144.52294922 97.93212891 C-143.59788602 108.08201756 -138.99383307 119.63714264 -132.54931641 127.58105469 C-132.13552734 128.19078125 -131.72173828 128.80050781 -131.29541016 129.42871094 C-132.29541016 132.42871094 -132.29541016 132.42871094 -134.37744141 133.68261719 C-135.27849609 134.11445313 -136.17955078 134.54628906 -137.10791016 134.99121094 C-154.89109484 144.37870272 -166.30033031 159.96351711 -172.39306641 178.82714844 C-173.09086593 181.35220905 -173.73679155 183.86970572 -174.29541016 186.42871094 C-193.95326635 171.78988186 -204.3699852 142.60993671 -208.29541016 119.42871094 C-212.87221196 87.07519115 -206.08693594 52.58586998 -186.81958008 25.82202148 C-184.39846082 22.61596783 -181.8757822 19.50734348 -179.29541016 16.42871094 C-178.06177734 14.92244141 -178.06177734 14.92244141 -176.80322266 13.38574219 C-132.89358851 -37.65020963 -51.10719383 -42.44893646 0 0 Z " fill="#000000" transform="translate(306.29541015625,186.5712890625)"/>
<path d="M0 0 C1.65625 1.984375 1.65625 1.984375 3.5 4.75 C8.13681816 11.37646572 13.42965801 17.15156227 19 23 C19.59425781 23.64710938 20.18851562 24.29421875 20.80078125 24.9609375 C26.40270562 30.88257468 33.68450502 37.34225251 41 41 C40.41564405 44.52117511 39.18931768 46.19152352 36.69560242 48.70553589 C35.98795242 49.42598083 35.28030243 50.14642578 34.5512085 50.88870239 C33.7694928 51.66905853 32.9877771 52.44941467 32.18237305 53.25341797 C31.36269547 54.08317139 30.54301788 54.9129248 29.69850159 55.76782227 C26.9775595 58.51733134 24.24536941 61.25531697 21.51171875 63.9921875 C20.56913212 64.93904518 19.62680443 65.8861607 18.68473244 66.83353043 C13.74427743 71.80175584 8.79611519 76.76215301 3.84057617 81.71533203 C-0.75998722 86.31409973 -5.34362656 90.92925989 -9.91947204 95.55261123 C-13.86043679 99.53300715 -17.81309078 103.50154183 -21.77477425 107.46131623 C-24.13528292 109.82106495 -26.48944654 112.18631526 -28.83495522 114.56103134 C-31.46217198 117.21786554 -34.10799741 119.85475311 -36.7590332 122.48779297 C-37.51848236 123.26410065 -38.27793152 124.04040833 -39.06039429 124.84024048 C-45.34401702 131.01681953 -53.25350767 136.7277058 -62.25 137.796875 C-72.18447172 137.6726941 -80.1463007 135.97682936 -87.9296875 129.359375 C-89.52595166 127.65986988 -90.76305514 125.97419676 -92 124 C-92.40992187 123.37867188 -92.81984375 122.75734375 -93.2421875 122.1171875 C-96.93124429 115.42600174 -97.70327533 106.4232991 -96 99 C-92.58912648 90.40762863 -87.93686864 84.06769624 -81.38012695 77.65136719 C-80.53550903 76.80105423 -79.69089111 75.95074127 -78.82067871 75.07466125 C-76.53215104 72.77701392 -74.23097312 70.49311945 -71.92260003 68.2154417 C-69.49971612 65.81916656 -67.09291911 63.40682519 -64.68388367 60.99664307 C-60.64666747 56.96222148 -56.59808749 52.93950563 -52.54174805 48.92431641 C-47.85198855 44.28195774 -43.178323 39.62387664 -38.51330405 34.95666575 C-33.5338697 29.97520794 -28.54310586 25.00522256 -23.54888892 20.03859043 C-22.11296044 18.60905562 -20.67917549 17.17740032 -19.24584389 15.74526215 C-16.58192514 13.08781617 -13.90838694 10.44046438 -11.23168945 7.79589844 C-10.4383873 7.00123672 -9.64508514 6.20657501 -8.82774353 5.38783264 C-8.10025909 4.67314316 -7.37277466 3.95845367 -6.62324524 3.22210693 C-5.6767308 2.28313379 -5.6767308 2.28313379 -4.71109486 1.3251915 C-3 0 -3 0 0 0 Z " fill="#000000" transform="translate(96,374)"/>
<path d="M0 0 C1.16543839 -0.01283524 2.33087677 -0.02567047 3.53163147 -0.03889465 C4.78890549 -0.04628159 6.0461795 -0.05366852 7.34155273 -0.0612793 C8.64156723 -0.06935104 9.94158173 -0.07742279 11.2809906 -0.08573914 C14.03563301 -0.10074517 16.79024987 -0.11059094 19.54492188 -0.11816406 C23.04602628 -0.12917732 26.54648614 -0.1635252 30.04736423 -0.20333576 C33.41623216 -0.23603968 36.78503851 -0.24030175 40.15405273 -0.2487793 C42.01870934 -0.27504143 42.01870934 -0.27504143 43.92103577 -0.30183411 C56.57289475 -0.27066462 67.09814381 3.4741884 76.37280273 12.2121582 C86.5386157 22.9860198 90.37882807 36.5297822 91.51733398 51.06762695 C91.21264648 54.17700195 91.21264648 54.17700195 89.91967773 55.7434082 C89.29448242 56.07211914 88.66928711 56.40083008 88.02514648 56.73950195 C86.92106445 57.32924805 86.92106445 57.32924805 85.79467773 57.9309082 C84.94260742 58.34211914 84.09053711 58.75333008 83.21264648 59.17700195 C82.26776367 59.66040039 81.32288086 60.14379883 80.34936523 60.6418457 C50.6043507 75.19949292 15.85270958 77.49806905 -15.69946289 67.44262695 C-36.78319525 60.18116022 -36.78319525 60.18116022 -42.78735352 54.17700195 C-43.4279891 40.44604586 -39.49451127 25.85244441 -30.78735352 15.17700195 C-22.48389675 6.10838023 -12.45580488 0.11976323 0 0 Z " fill="#000000" transform="translate(200.787353515625,340.822998046875)"/>
<path d="M0 0 C0.928125 0.61875 0.928125 0.61875 1.875 1.25 C2.555625 1.6625 3.23625 2.075 3.9375 2.5 C11.25126094 7.37584063 16.69207996 14.7139589 18.875 23.25 C19.86997548 32.49097448 20.17929143 42.29356286 14.875 50.25 C14.4625 50.930625 14.05 51.61125 13.625 52.3125 C8.42831429 60.10752856 0.99282288 65.21314178 -8.125 67.25 C-17.1595905 68.22831677 -26.31989 68.35763845 -34.125 63.25 C-34.80691406 62.8375 -35.48882812 62.425 -36.19140625 62 C-43.50105672 57.11765282 -48.94170667 49.78750081 -51.125 41.25 C-52.11997548 32.00902552 -52.42929143 22.20643714 -47.125 14.25 C-46.7125 13.569375 -46.3 12.88875 -45.875 12.1875 C-36.49418961 -1.88371559 -15.3537909 -8.63650738 0 0 Z " fill="#000000" transform="translate(241.125,243.75)"/>
<path d="M0 0 C7.87530019 6.7502573 7.87530019 6.7502573 10.68907166 9.56208801 C11.32975586 10.19995239 11.97044006 10.83781677 12.63053894 11.49501038 C13.3066774 12.17317307 13.98281586 12.85133575 14.67944336 13.55004883 C15.77825333 14.64623032 15.77825333 14.64623032 16.89926147 15.76455688 C19.29862905 18.15955389 21.69435702 20.55815309 24.08984375 22.95703125 C25.76121146 24.62772498 27.43272755 26.29827026 29.10438538 27.96867371 C32.59506218 31.45788042 36.08393394 34.94887934 39.5715332 38.44116211 C44.05301282 42.9283652 48.53900231 47.41102867 53.02632809 51.89238453 C56.47234836 55.3348032 59.91599814 58.77958523 63.35891914 62.22510338 C65.01328589 63.88013914 66.66840109 65.53442707 68.32426262 67.1879673 C70.62736824 69.48855014 72.9272726 71.79228483 75.22631836 74.09692383 C75.91662643 74.78520767 76.60693451 75.47349152 77.31816101 76.18263245 C77.93910645 76.80639771 78.56005188 77.43016296 79.19981384 78.0728302 C79.7437979 78.61719129 80.28778196 79.16155237 80.84825039 79.72240925 C82 81 82 81 82 82 C54.94 82 27.88 82 0 82 C0 54.94 0 27.88 0 0 Z " fill="#000000" transform="translate(422,9)"/>
</svg>
